<?xml version="1.0" encoding="utf-8"?>
<!-- Generator: Adobe Illustrator 13.0.2, SVG Export Plug-In . SVG Version: 6.00 Build 14948)  -->
<!DOCTYPE svg PUBLIC "-//W3C//DTD SVG 1.1//EN" "http://www.w3.org/Graphics/SVG/1.1/DTD/svg11.dtd">
<svg version="1.1" id="Layer_1" xmlns="http://www.w3.org/2000/svg" xmlns:xlink="http://www.w3.org/1999/xlink" x="0px" y="0px"
	 width="100px" height="100px" viewBox="0 0 100 100" enable-background="new 0 0 100 100" xml:space="preserve">
<title>Layer 1</title>
<g>
	<g id="XMLID_1_">
		<g>
			<path d="M40.28,42.68c-2.57,2.74-2.35,2.57-3.83,2.74c-3.6-0.44-2.11-7.06,3.36-8.76c5.39-1.69,19.17-1.87,21.34-4.96
				c1.989-2.82,4.439-3.55,5.319-1.24c0.66,1.72,0.55,5.58-7.109,8.06c-0.74,0.24-1.471,0.45-2.181,0.63h-4.41v0.9
				c-2.21,0.35-4.209,0.52-5.959,0.7v-0.26h-5.36v1.34C40.99,42.06,40.6,42.34,40.28,42.68z"/>
			<polygon points="60.42,50.93 62.71,53.98 58.12,53.98 58.12,50.94 			"/>
			<polygon points="62.71,68.19 60.31,74.82 39.36,74.82 36.85,68.3 			"/>
			<rect x="52.77" y="53.98" width="5.351" height="2.3"/>
			<polygon points="58.12,50.94 58.12,53.98 52.77,53.98 52.77,50.97 			"/>
			<polygon points="58.12,50.21 58.12,50.94 52.77,50.97 52.77,50.21 			"/>
			<path d="M58.12,39.15v11.06H52.77V40.05c1.391-0.21,2.87-0.5,4.41-0.9H58.12z"/>
			<path d="M52.77,39.15h4.41c-1.54,0.4-3.02,0.69-4.41,0.9V39.15z"/>
			<polygon points="52.77,50.97 52.77,53.98 46.81,53.98 46.81,50.99 			"/>
			<polygon points="52.77,50.21 52.77,50.97 46.81,50.99 46.81,50.21 			"/>
			<rect x="41.45" y="53.98" width="5.36" height="3.64"/>
			<polygon points="46.81,50.99 46.81,53.98 41.45,53.98 41.45,51.02 			"/>
			<polygon points="46.81,50.21 46.81,50.99 41.45,51.02 41.45,50.21 			"/>
			<path d="M46.81,40.75v9.46h-5.36v-8.38C42.74,41.2,44.57,40.97,46.81,40.75z"/>
			<path d="M41.45,41.83v-1.34h5.36v0.26C44.57,40.97,42.74,41.2,41.45,41.83z"/>
			<polygon points="41.45,51.02 41.45,53.98 36.85,53.98 39.25,51.03 			"/>
			<path d="M38.31,18.73c-3.55-0.75-1.5-7.21,4.1-8.44c5.52-1.22,11.33-0.2,13.8-3.05c1.69-1.95,4.71-2.16,5.65-0.61
				c0.93,1.54,0.069,5.96-7.801,7.63c-7.649,1.62-9.359,0.26-11.7,2.07C39.42,18.6,39.8,18.69,38.31,18.73z"/>
			<path d="M36.85,68.3l2.51,6.521h20.95l2.4-6.63L36.85,68.3z M36.85,53.98h4.6v3.64h5.36v-3.64h5.959v2.3h5.351v-2.3h4.59
				l-2.29-3.051l-2.3,0.011v-0.73h2.58l2.84,3.55v14.51l-2.68,7.381H38.67l-2.75-7.391v-14.5l2.88-3.55h2.65v0.81l-2.2,0.011
				L36.85,53.98z"/>
			<path d="M40.28,25.21c-2.57,2.74-2.35,2.57-3.83,2.74c-3.6-0.44-2.11-7.06,3.36-8.77c5.39-1.68,19.17-1.86,21.34-4.95
				c1.989-2.83,4.439-3.55,5.319-1.24c0.66,1.72,0.55,5.57-7.109,8.05C50.03,24.06,42.84,22.46,40.28,25.21z"/>
			<path d="M40.28,33.94c-2.57,2.75-2.35,2.57-3.83,2.75c-3.6-0.45-2.11-7.06,3.36-8.77c5.39-1.68,19.17-1.86,21.34-4.96
				c1.989-2.82,4.439-3.55,5.319-1.24c0.66,1.73,0.55,5.58-7.109,8.06C50.03,32.8,42.84,31.2,40.28,33.94z"/>
		</g>
		<g>
			
				<line fill="none" stroke="#000000" stroke-width="3" stroke-linecap="round" stroke-linejoin="round" x1="56.85" y1="77.32" x2="42.64" y2="79.9"/>
			
				<line fill="none" stroke="#000000" stroke-width="3" stroke-linecap="round" stroke-linejoin="round" x1="56.85" y1="81.84" x2="42.64" y2="84.42"/>
			
				<line fill="none" stroke="#000000" stroke-width="3" stroke-linecap="round" stroke-linejoin="round" x1="56.85" y1="86.36" x2="42.64" y2="88.94"/>
			<path fill="none" stroke="#000000" stroke-width="3" stroke-linecap="round" d="M46.9,91.72c0,0-0.26,1.16,3.36,1.16
				c3.26,0,3.23-1.16,3.23-1.16"/>
		</g>
	</g>
</g>
</svg>
