<svg width="100" height="100" xmlns="http://www.w3.org/2000/svg">

 <metadata id="imagebot_9">image/svg+xml</metadata>
 <g label="svg" id="imagebot_2">
  <title>svg</title>
  <g transform="translate(-0.64 1.28) matrix(1.2022 0 0 1.2022 -16.35 -15.1672)" id="imagebot_10">
   <path transform="matrix(1 0 0 1 -126.063 1.125)" label="svg" fill="#000000" d="M 142.316 61.3752 C 142.316 39.9273 141.641 39.8329 158.474 40.0856 C 160.988 40.1234 162.761 40.3748 165.629 39.8533 C 172.493 37.7627 181.045 34.4132 181.045 36.9709 C 181.045 40.3668 174.132 42.3208 165.391 45.5764 L 157.094 45.6206 L 156.76 49.1429 C 156.576 51.0801 155.809 53.3445 155.056 54.1747 C 152.908 56.5418 152.366 60.4817 153.809 63.232 C 155.051 65.5974 154.945 65.8081 152.035 66.7542 C 149.72 67.5074 148.3 69.0889 146.393 73.0404 C 144.992 75.9443 143.501 78.3219 143.081 78.3238 C 142.66 78.3258 142.316 70.6989 142.316 61.3752 L 142.316 61.3752 Z M 185.704 47.5615 C 184.689 46.5587 184.103 44.1946 184.103 41.1009 L 184.103 36.2218 L 192.764 30.8576 C 197.528 27.9072 201.426 25.1486 201.427 24.7274 C 201.428 24.306 197.77 25.7778 193.298 27.998 C 188.826 30.2182 184.928 32.0347 184.635 32.0347 C 183.636 32.0347 184.099 16.813 185.158 14.8604 C 186.135 13.0583 187.444 12.9138 202.79 12.9138 C 214.324 12.9138 219.739 13.2812 220.589 14.1215 C 221.436 14.9575 221.813 20.1596 221.813 31.0283 C 221.813 41.8971 221.436 47.0992 220.589 47.9352 C 219.742 48.7721 214.445 49.1429 203.336 49.1429 C 190.122 49.1429 187.025 48.8651 185.704 47.5615 Z M 146.62 36.5063 C 142.24 33.4769 144.557 25.9965 149.875 25.9965 C 155.129 25.9965 157.588 33.5411 153.301 36.5063 C 152.055 37.3679 150.551 38.0729 149.96 38.0729 C 149.369 38.0729 147.866 37.3679 146.62 36.5063 Z" id="imagebot_6"/>
   <path transform="matrix(1 0 0 1 -126.063 1.125)" label="svg" fill="#000000" d="M 162 53.6343 C 158.493 53.6343 155.656 56.471 155.656 59.978 C 155.656 63.4851 158.493 66.353 162 66.353 C 165.507 66.353 168.344 63.4851 168.344 59.978 C 168.344 56.471 165.507 53.6343 162 53.6343 Z M 202.125 53.6343 C 198.618 53.6343 195.781 56.471 195.781 59.978 C 195.781 63.4851 198.618 66.353 202.125 66.353 C 205.632 66.353 208.469 63.4851 208.469 59.978 C 208.469 56.471 205.632 53.6343 202.125 53.6343 Z M 161.75 68.4468 C 158.373 68.4455 155.072 68.6578 152.031 69.0718 C 149.869 69.9016 145.228 79.1053 145.625 81.7905 C 146.217 85.7939 148.268 85.2458 152 80.0405 C 153.313 78.21 153.44 78.6438 153.469 84.8218 L 153.5 91.6343 L 170.5 91.6343 L 170.531 84.8218 C 170.56 78.6438 170.687 78.21 172 80.0405 C 175.732 85.2458 177.783 85.7939 178.375 81.7905 C 178.772 79.1053 174.131 69.9016 171.969 69.0718 C 168.58 68.6629 165.127 68.4481 161.75 68.4468 L 161.75 68.4468 Z M 201.875 68.4468 C 198.498 68.4455 195.197 68.6578 192.156 69.0718 C 189.994 69.9016 185.353 79.1053 185.75 81.7905 C 186.342 85.7939 188.393 85.2458 192.125 80.0405 C 193.438 78.21 193.565 78.6438 193.594 84.8218 L 193.625 91.6343 L 210.625 91.6343 L 210.656 84.8218 C 210.685 78.6438 210.812 78.21 212.125 80.0405 C 215.857 85.2458 217.908 85.7939 218.5 81.7905 C 218.897 79.1053 214.256 69.9016 212.094 69.0718 C 208.705 68.6629 205.252 68.4481 201.875 68.4468 Z" id="imagebot_5"/>
   <path label="svg" transform="matrix(1 0 0 1 -126.063 1.125)" fill="#000000" stroke="#ff0000" stroke-width="0" stroke-miterlimit="4" stroke-dashoffset="0" d="M 143.063 87.25 L 143.063 88.5938 L 150.906 88.5938 L 150.906 87.25 L 143.063 87.25 Z M 172.906 87.25 L 172.906 88.5938 L 191.219 88.5938 L 191.219 87.25 L 172.906 87.25 Z M 213.219 87.25 L 213.219 88.5938 L 221.063 88.5938 L 221.063 87.25 L 213.219 87.25 Z" id="imagebot_4"/>
  </g>
 </g>
</svg>